<svg width="122.51mm" height="108.419mm" viewBox="0 0 122.51 108.419" xmlns="http://www.w3.org/2000/svg"><g id="svgGroup" stroke-linecap="round" fill-rule="evenodd" font-size="9pt" stroke="#000" stroke-width="0.25mm" fill="none" style="stroke:#000;stroke-width:0.25mm;fill:none">
    <rect width="100%" height="100%" fill="#e6e6e6"/>
    <path d="M 112.283 108.419 L 20.351 108.419 A 3 3 0 0 1 17.416 106.043 L 0.066 24.415 A 3 3 0 0 1 2.376 20.857 L 100.191 0.066 A 3 3 0 0 1 103.749 2.376 L 122.445 90.331 A 3 3 0 0 1 122.168 92.345 L 113.946 108.066 L 112.283 108.419 Z M 91.349 108.224 L 21.033 108.224 A 2 2 0 0 1 19.076 106.64 L 2.157 27.037 A 2 2 0 0 1 3.697 24.665 L 97.599 4.706 A 2 2 0 0 1 99.971 6.246 L 119.207 96.745 A 2 2 0 0 1 119.015 98.102 L 116.872 102.116 A 2 2 0 0 1 115.524 103.13 L 91.765 108.18 A 2 2 0 0 1 91.349 108.224 Z M 88.107 75.143 L 69.107 75.143 L 69.107 13.143 L 50.107 13.143 L 50.107 73.143 L 31.107 73.143 L 31.107 16.143 L 50.107 16.143 M 69.107 18.143 L 88.107 18.143 L 88.107 79.143 L 107.107 79.143 L 107.107 22.143 L 88.107 22.143 M 14.205 86.124 L 32.789 82.173 L 20.938 26.419 L 2.354 30.369 L 14.205 86.124 Z M 57.607 96.143 L 76.607 96.143 L 76.607 77.143 L 57.607 77.143 L 57.607 96.143 Z M 112.471 107.201 L 121.391 90.425 L 104.615 81.505 L 95.695 98.281 L 112.471 107.201 Z M 76.532 96.046 L 94.968 100.643 L 99.564 82.207 L 81.129 77.611 L 76.532 96.046 Z M 10.254 67.539 28.839 63.589 M 6.304 48.954 24.889 45.004 M 31.107 54.143 50.107 54.143 M 31.107 35.143 50.107 35.143 M 50.107 70.143 69.107 70.143 M 50.107 51.143 69.107 51.143 M 50.107 32.143 69.107 32.143 M 69.107 56.143 88.107 56.143 M 69.107 37.143 88.107 37.143 M 88.107 60.143 107.107 60.143 M 88.107 41.143 107.107 41.143" vector-effect="non-scaling-stroke"/></g></svg>