<svg width="121.201mm" height="125.115mm" viewBox="0 0 121.201 125.115" xmlns="http://www.w3.org/2000/svg"><g id="svgGroup" stroke-linecap="round" fill-rule="evenodd" font-size="9pt" stroke="#000" stroke-width="0.25mm" fill="none" style="stroke:#000;stroke-width:0.25mm;fill:none"><path d="M 85.799 124.761 L 1.815 87.369 A 3 3 0 0 1 0.101 84.004 L 17.451 2.376 A 3 3 0 0 1 21.01 0.066 L 118.824 20.857 A 3 3 0 0 1 121.135 24.415 L 102.44 112.37 A 3 3 0 0 1 101.368 114.097 L 87.463 125.115 L 85.799 124.761 Z M 66.755 116.068 L 2.518 87.468 A 2 2 0 0 1 1.375 85.225 L 18.295 5.623 A 2 2 0 0 1 20.667 4.082 L 114.569 24.042 A 2 2 0 0 1 116.11 26.414 L 96.874 116.912 A 2 2 0 0 1 96.146 118.074 L 92.556 120.869 A 2 2 0 0 1 90.912 121.247 L 67.153 116.197 A 2 2 0 0 1 66.755 116.068 Z M 98.806 36.111 L 116.163 43.839 L 92.979 95.911 L 75.622 88.183 L 77.249 84.529 L 59.891 76.801 L 61.925 72.233 L 44.568 64.505 L 43.348 67.245 L 25.99 59.517 L 49.174 7.445 L 66.532 15.173 M 5.269 64.501 L 23.854 68.451 L 35.705 12.697 L 17.12 8.747 L 5.269 64.501 Z M 40.844 91.308 L 58.202 99.036 L 58.233 98.964 L 73.144 110.614 L 84.842 95.642 L 69.869 83.944 L 58.364 98.671 L 65.93 81.678 L 48.572 73.95 L 40.844 91.308 Z M 0 84.431 L 32.298 91.296 L 35.995 73.905 L 3.697 67.04 L 0 84.431 Z M 86.467 123.725 L 101.439 112.027 L 89.742 97.055 L 74.77 108.752 L 86.467 123.725 Z M 56.326 17.197 L 57.746 18.924 L 63.684 21.568 L 67.752 12.433 L 85.109 20.161 L 82.262 26.556 L 76.324 23.912 L 74.904 22.185 M 7.256 62.367 L 22.906 65.694 L 23.738 61.781 L 8.087 58.455 L 7.256 62.367 Z M 62.411 28.116 L 77.028 34.624 L 78.655 30.97 L 64.038 24.462 L 62.411 28.116 Z M 77.735 40.412 L 92.351 46.92 L 93.978 43.266 L 79.362 36.758 L 77.735 40.412 Z M 78.009 86.509 L 92.626 93.017 L 94.253 89.363 L 79.636 82.855 L 78.009 86.509 Z M 15.156 25.198 L 30.807 28.524 L 31.638 24.612 L 15.988 21.285 L 15.156 25.198 Z M 11.206 43.783 L 26.857 47.109 L 27.688 43.197 L 12.038 39.87 L 11.206 43.783 Z M 62.279 75.127 L 76.895 81.635 L 78.522 77.98 L 63.906 71.473 L 62.279 75.127 Z M 85.737 69.152 L 100.354 75.659 L 101.981 72.005 L 87.364 65.497 L 85.737 69.152 Z M 106.761 58.809 L 113.269 44.192 L 109.615 42.565 L 103.107 57.182 L 106.761 58.809 Z M 43.231 89.634 L 57.848 96.142 L 59.475 92.487 L 44.858 85.98 L 43.231 89.634 Z M 28.377 57.844 L 42.994 64.352 L 44.621 60.697 L 30.004 54.19 L 28.377 57.844 Z M 54.683 45.474 L 69.3 51.981 L 70.927 48.327 L 56.31 41.82 L 54.683 45.474 Z M 36.105 40.486 L 50.722 46.994 L 52.349 43.34 L 37.732 36.832 L 36.105 40.486 Z M 43.833 23.129 L 58.45 29.637 L 60.077 25.983 L 45.46 19.475 L 43.833 23.129 Z M 46.955 62.831 L 61.572 69.339 L 63.199 65.685 L 48.582 59.177 L 46.955 62.831 Z M 70.007 57.769 L 84.623 64.277 L 86.25 60.623 L 71.634 54.115 L 70.007 57.769 Z M 86.11 120.831 L 98.718 110.981 L 96.255 107.828 L 83.647 117.679 L 86.11 120.831 Z M 60.893 97.87 L 73.501 107.721 L 75.964 104.569 L 63.356 94.718 L 60.893 97.87 Z M 10.864 47.799 L 25.536 50.918 L 24.6 55.319 L 9.928 52.201 L 10.864 47.799 Z M 50.391 9.629 L 64.094 15.73 L 62.264 19.841 L 48.561 13.74 L 50.391 9.629 Z M 49.789 76.134 L 63.492 82.235 L 61.662 86.346 L 47.959 80.245 L 49.789 76.134 Z M 77.269 108.703 L 89.089 99.468 L 91.86 103.014 L 80.04 112.249 L 77.269 108.703 Z M 70.522 86.358 L 82.342 95.593 L 79.572 99.139 L 67.752 89.904 L 70.522 86.358 Z M 68.969 14.617 L 82.672 20.718 L 80.842 24.829 L 67.138 18.727 L 68.969 14.617 Z M 42.663 26.987 L 56.366 33.088 L 54.536 37.199 L 40.833 31.097 L 42.663 26.987 Z M 61.241 31.974 L 74.944 38.075 L 73.114 42.186 L 59.41 36.085 L 61.241 31.974 Z M 93.262 52.251 L 99.363 38.548 L 103.474 40.378 L 97.373 54.081 L 93.262 52.251 Z M 18.764 10.63 L 33.436 13.748 L 32.501 18.15 L 17.829 15.031 L 18.764 10.63 Z M 14.814 29.214 L 29.486 32.333 L 28.551 36.735 L 13.878 33.616 L 14.814 29.214 Z M 68.836 61.627 L 82.54 67.728 L 80.709 71.839 L 67.006 65.738 L 68.836 61.627 Z M 34.935 44.344 L 48.638 50.445 L 46.808 54.556 L 33.105 48.455 L 34.935 44.344 Z M 92.295 55.652 L 105.998 61.753 L 104.168 65.864 L 90.465 59.763 L 92.295 55.652 Z M 53.513 49.331 L 67.216 55.432 L 65.386 59.543 L 51.682 53.442 L 53.513 49.331 Z M 84.567 73.009 L 98.27 79.11 L 96.44 83.221 L 82.737 77.12 L 84.567 73.009 Z M 76.564 44.27 L 90.268 50.371 L 88.437 54.482 L 74.734 48.381 L 76.564 44.27 Z M 84.292 26.912 L 97.996 33.013 L 96.165 37.124 L 82.462 31.023 L 84.292 26.912 Z M 38.389 41.503 L 37.882 40.183 L 38.696 38.356 L 36.412 37.339 L 37.836 34.142 L 43.774 36.785 L 45.041 40.086 L 48.341 38.819 L 54.279 41.463 L 52.856 44.66 L 50.572 43.643 L 49.758 45.47 L 48.438 45.977 M 80.018 41.429 L 79.512 40.109 L 80.325 38.282 L 78.041 37.265 L 79.465 34.067 L 85.403 36.711 L 86.67 40.012 L 89.971 38.745 L 95.909 41.389 L 94.485 44.586 L 92.201 43.569 L 91.388 45.396 L 90.067 45.903 M 45.515 90.651 L 45.008 89.33 L 45.822 87.503 L 43.538 86.486 L 44.962 83.289 L 50.9 85.933 L 52.167 89.233 L 55.467 87.966 L 61.405 90.61 L 59.982 93.808 L 57.698 92.791 L 56.885 94.618 L 55.564 95.125 M 80.293 87.526 L 79.786 86.206 L 80.6 84.378 L 78.316 83.362 L 79.739 80.164 L 85.677 82.808 L 86.944 86.109 L 90.245 84.842 L 96.183 87.485 L 94.76 90.683 L 92.476 89.666 L 91.662 91.493 L 90.342 92 M 49.239 63.848 L 48.732 62.528 L 49.545 60.701 L 47.262 59.684 L 48.685 56.486 L 54.623 59.13 L 55.89 62.431 L 59.191 61.164 L 65.129 63.808 L 63.705 67.005 L 61.422 65.988 L 60.608 67.815 L 59.288 68.322 M 64.695 29.133 L 64.188 27.813 L 65.001 25.986 L 62.718 24.969 L 64.141 21.772 L 70.079 24.415 L 71.346 27.716 L 74.647 26.449 L 80.585 29.093 L 79.161 32.29 L 76.878 31.273 L 76.064 33.1 L 74.744 33.607 M 46.117 24.146 L 45.61 22.826 L 46.424 20.998 L 44.14 19.982 L 45.564 16.784 L 51.502 19.428 L 52.769 22.729 L 56.069 21.462 L 62.007 24.105 L 60.584 27.303 L 58.3 26.286 L 57.486 28.113 L 56.166 28.62 M 88.021 70.168 L 87.514 68.848 L 88.328 67.021 L 86.044 66.004 L 87.467 62.807 L 93.405 65.451 L 94.672 68.751 L 97.973 67.484 L 103.911 70.128 L 102.488 73.326 L 100.204 72.309 L 99.39 74.136 L 98.07 74.643 M 88.08 119.292 L 86.676 119.12 L 85.445 117.544 L 83.475 119.083 L 81.32 116.325 L 86.442 112.323 L 89.951 112.754 L 90.382 109.245 L 95.504 105.243 L 97.659 108.001 L 95.689 109.54 L 96.92 111.116 L 96.748 112.52 M 56.967 46.491 L 56.46 45.17 L 57.273 43.343 L 54.99 42.326 L 56.413 39.129 L 62.351 41.773 L 63.618 45.073 L 66.919 43.806 L 72.857 46.45 L 71.433 49.648 L 69.15 48.631 L 68.336 50.458 L 67.016 50.965 M 30.661 58.861 L 30.154 57.54 L 30.968 55.713 L 28.684 54.696 L 30.108 51.499 L 36.046 54.143 L 37.313 57.443 L 40.613 56.176 L 46.551 58.82 L 45.128 62.018 L 42.844 61.001 L 42.031 62.828 L 40.71 63.335 M 72.29 58.786 L 71.784 57.466 L 72.597 55.639 L 70.313 54.622 L 71.737 51.425 L 77.675 54.068 L 78.942 57.369 L 82.243 56.102 L 88.181 58.746 L 86.757 61.943 L 84.473 60.926 L 83.66 62.754 L 82.339 63.26 M 64.562 76.144 L 64.056 74.823 L 64.869 72.996 L 62.585 71.979 L 64.009 68.782 L 69.947 71.426 L 71.214 74.727 L 74.515 73.459 L 80.453 76.103 L 79.029 79.301 L 76.745 78.284 L 75.932 80.111 L 74.611 80.618 M 62.863 99.409 L 62.691 98.006 L 63.922 96.43 L 61.952 94.89 L 64.107 92.132 L 69.229 96.134 L 69.66 99.643 L 73.169 99.212 L 78.291 103.214 L 76.136 105.972 L 74.166 104.433 L 72.935 106.009 L 71.531 106.181 M 107.778 56.525 L 106.458 57.032 L 104.631 56.218 L 103.614 58.502 L 100.417 57.079 L 103.06 51.141 L 106.361 49.874 L 105.094 46.573 L 107.738 40.635 L 110.935 42.058 L 109.919 44.342 L 111.746 45.156 L 112.252 46.476 M 83.075 24.728 L 100.433 32.456 L 97.586 38.851 L 91.648 36.207 L 90.227 34.48 M 11.579 37.217 L 17.937 38.568 L 19.863 41.533 L 22.828 39.608 L 29.186 40.959 L 28.458 44.383 L 26.013 43.863 L 25.597 45.819 L 24.411 46.589 M 7.629 55.802 L 13.987 57.153 L 15.913 60.118 L 18.878 58.193 L 25.236 59.544 L 24.508 62.967 L 22.063 62.448 L 21.647 64.404 L 20.461 65.174 M 15.53 18.632 L 21.888 19.983 L 23.813 22.949 L 26.778 21.023 L 33.136 22.374 L 32.409 25.798 L 29.963 25.278 L 29.548 27.234 L 28.361 28.005 M 84.786 47.93 L 86.207 49.657 L 91.688 52.098 L 88.231 59.863 L 94.169 62.507 L 96.403 62.407 M 77.058 65.288 L 78.479 67.015 L 83.96 69.455 L 80.503 77.22 L 86.441 79.864 L 88.675 79.764 M 58.994 51.772 L 56.76 51.872 L 51.279 49.431 L 48.228 56.283 L 42.29 53.639 L 40.87 51.912 M 66.722 34.414 L 64.488 34.514 L 59.007 32.074 L 55.956 38.926 L 50.018 36.282 L 48.598 34.555 M 82.046 46.71 L 79.812 46.81 L 74.331 44.37 L 72.5 48.481 L 78.438 51.124 L 80.672 51.024 M 74.318 64.067 L 72.084 64.167 L 66.603 61.727 L 64.772 65.838 L 70.71 68.482 L 72.944 68.382 M 95.702 46.77 L 95.802 49.004 L 93.362 54.485 L 97.473 56.315 L 100.116 50.377 L 100.016 48.143 M 89.774 29.353 L 87.54 29.453 L 82.059 27.012 L 80.228 31.123 L 86.166 33.767 L 88.4 33.667 M 61.735 52.992 L 63.155 54.719 L 68.636 57.159 L 66.806 61.27 L 60.868 58.626 L 59.448 56.899 M 69.463 35.635 L 70.883 37.362 L 76.364 39.802 L 74.534 43.913 L 68.596 41.269 L 67.176 39.542 M 110.595 28.309 m -2.7 0 a 2.7 2.7 0 0 1 5.4 0 a 2.7 2.7 0 0 1 -5.4 0 z M 97.509 97.091 m -2.7 0 a 2.7 2.7 0 0 1 5.4 0 a 2.7 2.7 0 0 1 -5.4 0 z M 58.272 106.131 m -2.7 0 a 2.7 2.7 0 0 1 5.4 0 a 2.7 2.7 0 0 1 -5.4 0 z M 34.543 32.59 m -2.7 0 a 2.7 2.7 0 0 1 5.4 0 a 2.7 2.7 0 0 1 -5.4 0 z M 20.636 6.631 m -2.2 0 a 2.2 2.2 0 0 1 4.4 0 a 2.2 2.2 0 0 1 -4.4 0 z M 79.079 114.268 L 84.201 110.267 L 85.162 108.247 M 49.449 53.542 L 55.387 56.186 L 57.62 56.086 M 57.177 36.185 L 63.115 38.829 L 65.348 38.729 M 65.56 89.46 L 70.682 93.462 L 72.874 93.906 M 82.13 73.566 L 76.192 70.922 L 74.771 69.195 M 89.858 56.209 L 83.92 53.565 L 82.499 51.838 M 97.86 84.948 L 91.922 82.304 L 90.502 80.577 M 105.588 67.591 L 99.65 64.947 L 98.23 63.22 M 63.082 88.073 L 57.144 85.429 L 55.724 83.702 M 15.664 15.594 L 22.022 16.945 L 24.187 16.383 M 11.714 34.178 L 18.072 35.53 L 20.236 34.967 M 34.249 19.544 L 27.891 18.192 L 26.143 16.798 M 30.299 38.129 L 23.941 36.777 L 22.193 35.383 M 7.764 52.763 L 14.122 54.115 L 16.286 53.552 M 80.532 101.158 L 75.41 97.156 L 74.45 95.137 M 105.201 38.958 L 102.557 44.896 L 100.83 46.316 M 38.599 31.198 L 44.537 33.841 L 46.771 33.741 M 46.327 13.84 L 52.265 16.484 L 54.499 16.384 M 30.871 48.555 L 36.809 51.199 L 39.043 51.099 M 45.725 80.345 L 51.663 82.989 L 53.897 82.889 M 64.905 18.828 L 70.843 21.471 L 73.076 21.371 M 26.349 56.713 L 19.991 55.362 L 18.242 53.968 M 94.051 102.571 L 88.929 106.573 L 86.738 107.016 M 77.614 91.899 L 78.574 93.918 L 83.303 97.612 M 23.617 31.086 L 25.366 32.48 L 31.235 33.727 M 77.191 18.277 L 78.611 20.004 L 84.092 22.445 M 96.922 44.029 L 98.649 42.609 L 101.09 37.127 M 90.048 75.45 L 87.814 75.55 L 82.333 73.109 M 48.144 29.427 L 45.911 29.527 L 40.429 27.087 M 16.732 49.047 L 14.568 49.609 L 8.699 48.361 M 58.011 79.795 L 59.431 81.522 L 64.913 83.962 M 55.27 78.574 L 53.037 78.674 L 47.555 76.234 M 74.45 17.057 L 72.216 17.157 L 66.735 14.717 M 97.776 58.092 L 95.542 58.192 L 90.061 55.752 M 40.416 46.784 L 38.183 46.884 L 32.701 44.444 M 84.361 103.162 L 86.553 102.719 L 91.281 99.025 M 75.25 90.052 L 73.058 89.608 L 68.33 85.914 M 27.568 12.501 L 29.316 13.895 L 35.185 15.142 M 19.667 49.67 L 21.415 51.064 L 27.284 52.312 M 24.633 11.877 L 22.469 12.439 L 16.6 11.192 M 20.683 30.462 L 18.519 31.024 L 12.65 29.777 M 92.514 30.573 L 93.935 32.3 L 99.416 34.74 M 100.517 59.312 L 101.937 61.039 L 107.418 63.48 M 92.789 76.67 L 94.209 78.397 L 99.69 80.837 M 43.157 48.005 L 44.577 49.732 L 50.059 52.172 M 50.885 30.647 L 52.305 32.374 L 57.787 34.815 M 58.613 13.29 L 60.033 15.017 L 65.515 17.457 M 81.997 105.009 L 81.037 107.028 L 76.309 110.722 M 55.872 12.07 L 53.639 12.17 L 48.157 9.729 M 9.701 62.887 L 8.931 61.701 L 9.347 59.745 L 6.901 59.225 M 17.602 25.718 L 16.832 24.532 L 17.247 22.575 L 14.802 22.055 M 13.652 44.302 L 12.881 43.116 L 13.297 41.16 L 10.852 40.64" vector-effect="non-scaling-stroke"/></g></svg>